<?xml version="1.0" encoding="utf-8"?>
<!-- Generator: Adobe Illustrator 21.1.0, SVG Export Plug-In . SVG Version: 6.00 Build 0)  -->
<svg version="1.1" id="Capa_1" xmlns="http://www.w3.org/2000/svg" xmlns:xlink="http://www.w3.org/1999/xlink" x="0px" y="0px"
	 viewBox="0 0 44.7 52" style="enable-background:new 0 0 44.7 52;" xml:space="preserve">
<style type="text/css">
	.st0{fill:#E6EEEE;}
	.st1{fill:#56C2F0;}
	.st2{fill:#D8E2E2;}
	.st3{fill:#A26C4E;}
	.st4{opacity:0.1;}
	.st5{fill:#020203;}
	.st6{fill:#7E4F3F;}
	.st7{opacity:0.15;fill:#020203;enable-background:new    ;}
	.st8{opacity:0.1;fill:#020203;enable-background:new    ;}
	.st9{fill:#EF7E64;}
	.st10{fill:#FBD97D;}
	.st11{fill:#4B5159;}
</style>
<g>
	<g>
		<path class="st0" d="M2.5,44.6l2.9-2.9c0,0,5.9,1,7.9,0.5c1.9-0.5,8.2-1.1,9.1,2.3v5.4l-0.5,0.6l-3.3-1.7L2.5,45.2V44.6L2.5,44.6z
			"/>
		<path class="st1" d="M22.4,51.5c-1.9,0-3.1-1.4-3.5-2.1L1.1,46.1l0.4-1.6L19.9,48l0.2,0.4c0,0,0.8,1.5,2.3,1.5V51.5L22.4,51.5z"/>
		<path class="st2" d="M42.3,44.6l-2.9-2.9c0,0-5.9,1-7.9,0.5c-1.9-0.5-8.2-1.1-9.1,2.3v5.4l0.5,0.6l3.3-1.7l16.1-3.6V44.6
			L42.3,44.6z"/>
		<path class="st1" d="M22.4,51.5c1.9,0,3.1-1.4,3.5-2.1L43.6,46l-0.3-1.6l-18.4,3.5l-0.2,0.4c0,0-0.8,1.5-2.3,1.5V51.5L22.4,51.5z"
			/>
	</g>
	<g>
		<path class="st3" d="M33.3,34.1c0,5.1-4.9,7.8-10.9,7.8s-10.9-2.7-10.9-7.8S16.4,25,22.4,25S33.3,29,33.3,34.1z"/>
		<g class="st4">
			<path class="st5" d="M22.4,37.3c-0.4,0-0.6-0.3-0.6-0.6v-1c0-0.4,0.3-0.6,0.6-0.6c0.4,0,0.6,0.3,0.6,0.6v1
				C23,37.1,22.7,37.3,22.4,37.3z"/>
			<path class="st5" d="M19.4,35.9c-0.4,0-0.6-0.3-0.6-0.6v-1c0-0.4,0.3-0.6,0.6-0.6c0.4,0,0.6,0.3,0.6,0.6v1
				C20,35.6,19.7,35.9,19.4,35.9z"/>
			<path class="st5" d="M25.4,35.9c-0.4,0-0.6-0.3-0.6-0.6v-1c0-0.4,0.3-0.6,0.6-0.6c0.4,0,0.6,0.3,0.6,0.6v1
				C26,35.6,25.7,35.9,25.4,35.9z"/>
		</g>
		<g>
			<path class="st6" d="M8.1,30.4c-0.8,2.2-1,8.5,1.2,9.3s6.1-4.2,6.9-6.5c0.8-2.2-0.3-4.7-2.6-5.5S8.9,28.1,8.1,30.4z"/>
			<path class="st6" d="M36.6,30.4c0.8,2.2,1.1,8.6-1.1,9.4c-2.2,0.8-6.1-4.2-6.9-6.5c-0.8-2.2,0.3-4.7,2.6-5.5
				C33.4,27,35.8,28.1,36.6,30.4z"/>
		</g>
		<path class="st7" d="M31.1,27.8c-0.2,0.1-0.4,0.2-0.6,0.3c-2-1.9-4.9-3.1-8.2-3.1s-6.2,1.2-8.2,3.1c-0.2-0.1-0.4-0.2-0.6-0.3
			c-1.3-0.5-2.7-0.3-3.7,0.4c2.8,3.3,7.3,5.5,12.5,5.5s9.7-2.2,12.5-5.5C33.8,27.5,32.4,27.3,31.1,27.8z"/>
		<ellipse class="st3" cx="22.4" cy="16.7" rx="17.6" ry="14.8"/>
		<path class="st8" d="M34.1,5.7c2.6,2.6,4.2,5.9,4.2,9.6c0,8.2-7.9,14.8-17.6,14.8c-4.5,0-8.6-1.4-11.7-3.8c3.2,3.2,8,5.2,13.4,5.2
			c9.7,0,17.6-6.6,17.6-14.8C40,12.3,37.7,8.4,34.1,5.7z"/>
		<path class="st9" d="M31.9,13.5l8-10.2c0.7-0.9-0.1-2.3-1.3-2L35.5,2c-1.1,0.2-2.3,0.2-3.4-0.1l-3.8-1.1c-1.8-0.5-3.6-0.2-5.2,0.7
			l0,0c-0.5,0.3-1.1,0.3-1.6,0l0,0c-1.6-0.9-3.5-1.2-5.2-0.7l-3.8,1.1C11.4,2.2,10.2,2.2,9.1,2L6,1.2C4.8,1,4,2.3,4.7,3.2l8,10.2
			h19.2V13.5z"/>
		<circle class="st10" cx="15.8" cy="13.5" r="6.6"/>
		<path class="st11" d="M17.8,14.8c-0.4,0-0.6-0.3-0.6-0.6c0-0.8-0.6-1.4-1.4-1.4c-0.8,0-1.4,0.6-1.4,1.4c0,0.4-0.3,0.6-0.6,0.6
			c-0.4,0-0.6-0.3-0.6-0.6c0-1.5,1.2-2.6,2.6-2.6s2.6,1.2,2.6,2.6C18.4,14.5,18.2,14.8,17.8,14.8z"/>
		<circle class="st10" cx="29" cy="13.5" r="6.6"/>
		<path class="st11" d="M31,14.8c-0.4,0-0.6-0.3-0.6-0.6c0-0.8-0.6-1.4-1.4-1.4s-1.4,0.6-1.4,1.4c0,0.4-0.3,0.6-0.6,0.6
			s-0.7-0.3-0.7-0.7c0-1.5,1.2-2.6,2.6-2.6c1.5,0,2.6,1.2,2.6,2.6C31.6,14.5,31.3,14.8,31,14.8z"/>
		<path class="st8" d="M21.5,15.1l-1.9,3.6c-0.4,0.8-0.3,1.8,0.4,2.4l1.6,1.6c0.4,0.4,1.1,0.4,1.6,0l1.6-1.6
			c0.6-0.6,0.8-1.6,0.4-2.4l-1.9-3.6C22.9,14.3,21.9,14.3,21.5,15.1z"/>
		<g>
			<path class="st9" d="M21.5,13.8l-1.9,3.6c-0.4,0.8-0.3,1.8,0.4,2.4l1.6,1.6c0.4,0.4,1.1,0.4,1.6,0l1.6-1.6
				c0.6-0.6,0.8-1.6,0.4-2.4l-1.9-3.6C22.9,13.1,21.9,13.1,21.5,13.8z"/>
			<path class="st9" d="M18.4,43.9c-0.9,0-1.7-0.8-1.7-1.7v-2.3c0-0.9,0.8-1.7,1.7-1.7c0.9,0,1.7,0.8,1.7,1.7v2.3
				C20.1,43.1,19.4,43.9,18.4,43.9z"/>
			<path class="st9" d="M26.3,43.9c-0.9,0-1.7-0.8-1.7-1.7v-2.3c0-0.9,0.8-1.7,1.7-1.7c0.9,0,1.7,0.8,1.7,1.7v2.3
				C28,43.1,27.3,43.9,26.3,43.9z"/>
		</g>
	</g>
</g>
</svg>
